<?xml version="1.0" encoding="UTF-8"?>
<svg xmlns="http://www.w3.org/2000/svg" width="800" height="600" viewBox="0 0 800 600">
  <defs>
    <linearGradient id="bg" x1="0" y1="0" x2="1" y2="1">
      <stop offset="0" stop-color="#051923"/>
      <stop offset="0.52" stop-color="#003d4d"/>
      <stop offset="1" stop-color="#0b132b"/>
    </linearGradient>
    <linearGradient id="mark" x1="0" y1="0" x2="1" y2="1">
      <stop offset="0" stop-color="#00e5ff"/>
      <stop offset="1" stop-color="#9ef01a"/>
    </linearGradient>
  </defs>
  <rect width="800" height="600" fill="url(#bg)"/>
  <path d="M96 406 C190 250, 274 250, 368 406 S546 562, 704 250" fill="none" stroke="#6fffe9" stroke-width="14" opacity="0.28"/>
  <path d="M98 210 C210 356, 278 358, 392 210 S592 64, 704 210" fill="none" stroke="#9ef01a" stroke-width="10" opacity="0.22"/>
  <circle cx="178" cy="196" r="74" fill="none" stroke="url(#mark)" stroke-width="16"/>
  <path d="M150 198 l36 36 l74 -92" fill="none" stroke="#ffffff" stroke-width="18" stroke-linecap="round" stroke-linejoin="round"/>
  <text x="300" y="170" fill="#ffffff" font-family="DejaVu Sans, Arial, sans-serif" font-size="46" font-weight="700">Tunebian GNU/Linux 13</text>
  <text x="302" y="222" fill="#c5f6fa" font-family="DejaVu Sans Mono, monospace" font-size="28">stable amd64</text>
  <text x="302" y="296" fill="#ffffff" font-family="DejaVu Sans Mono, monospace" font-size="24">Built: @YEAR@-@MONTH@-@DAY@ @HOUR@:@MINUTE@:@SECOND@ @TIMEZONE@</text>
  <text x="302" y="354" fill="#d8f3dc" font-family="DejaVu Sans Mono, monospace" font-size="19">linux: @LINUX_VERSIONS@</text>
  <text x="302" y="384" fill="#d8f3dc" font-family="DejaVu Sans Mono, monospace" font-size="19">live-build: @LIVE_BUILD_VERSION@</text>
  <text x="302" y="414" fill="#d8f3dc" font-family="DejaVu Sans Mono, monospace" font-size="19">live-boot: @LIVE_BOOT_VERSION@</text>
  <text x="302" y="444" fill="#d8f3dc" font-family="DejaVu Sans Mono, monospace" font-size="19">live-config: @LIVE_CONFIG_VERSION@</text>
  <text x="302" y="474" fill="#d8f3dc" font-family="DejaVu Sans Mono, monospace" font-size="19">live-tools: @LIVE_TOOLS_VERSION@</text>
</svg>
