<?xml version="1.0" encoding="UTF-8"?>
<svg xmlns="http://www.w3.org/2000/svg" width="1920" height="1080" viewBox="0 0 1920 1080">
  <defs>
    <linearGradient id="bg" x1="0" y1="0" x2="1" y2="1">
      <stop offset="0" stop-color="#051923"/>
      <stop offset="0.55" stop-color="#07495a"/>
      <stop offset="1" stop-color="#0b132b"/>
    </linearGradient>
    <linearGradient id="lineA" x1="0" y1="0" x2="1" y2="1">
      <stop offset="0" stop-color="#00e5ff" stop-opacity="0.34"/>
      <stop offset="1" stop-color="#9ef01a" stop-opacity="0.34"/>
    </linearGradient>
    <linearGradient id="lineB" x1="0" y1="1" x2="1" y2="0">
      <stop offset="0" stop-color="#4cc9f0" stop-opacity="0.28"/>
      <stop offset="1" stop-color="#b5179e" stop-opacity="0.24"/>
    </linearGradient>
    <filter id="softShadow" x="-20%" y="-20%" width="140%" height="140%">
      <feDropShadow dx="0" dy="16" stdDeviation="16" flood-color="#001219" flood-opacity="0.35"/>
    </filter>
  </defs>
  <rect width="1920" height="1080" fill="url(#bg)"/>
  <path d="M-180 990 C110 810 210 680 90 520 C-45 340 -40 180 250 40" fill="none" stroke="url(#lineA)" stroke-width="12"/>
  <path d="M520 -80 C760 170 790 250 1010 80 C1190 -60 1340 30 1260 220 C1180 410 1340 520 1530 410 C1700 310 1860 400 1945 520" fill="none" stroke="url(#lineB)" stroke-width="11"/>
  <path d="M780 1120 C1010 880 1125 860 1280 980 C1420 1090 1640 1050 1780 830 C1885 665 1970 660 2060 710" fill="none" stroke="url(#lineA)" stroke-width="13"/>
  <g transform="translate(720 110)" filter="url(#softShadow)">
    <rect x="0" y="0" width="480" height="140" rx="34" fill="#061826" fill-opacity="0.78"/>
    <rect x="38" y="28" width="84" height="84" rx="20" fill="#051923"/>
    <path d="M60 73 l18 18 l38 -48" fill="none" stroke="#ffffff" stroke-width="13" stroke-linecap="round" stroke-linejoin="round"/>
    <circle cx="80" cy="70" r="50" fill="none" stroke="#35f29a" stroke-width="8"/>
    <text x="148" y="62" fill="#ffffff" font-family="DejaVu Sans, Arial, sans-serif" font-size="44" font-weight="700">Tunebian</text>
    <text x="151" y="100" fill="#c5f6fa" font-family="DejaVu Sans Mono, monospace" font-size="23">GNU/Linux 13</text>
  </g>
</svg>
